<svg width="80" height="32" viewBox="0 0 80 32" fill="none" xmlns="http://www.w3.org/2000/svg">
<path d="M34.84 16.2793C34.84 15.8329 34.7816 15.3934 34.6648 14.9741H25.96V18.156H31.132C30.9304 19.3446 30.2224 20.3703 29.1728 21.0714V23.367H31.9056C33.72 21.6111 34.84 19.1601 34.84 16.2793Z" fill="#4285F4"/>
<path d="M25.9599 24.0001C28.3759 24.0001 30.3471 23.2305 31.9055 21.0715L29.1727 18.7756C28.3855 19.2979 27.2799 19.6703 25.9599 19.6703C23.6719 19.6703 21.7855 18.1254 21.0775 16.141L18.2399 18.4748V18.5262C19.0167 20.0026 20.2183 21.1912 21.7223 22.0125C23.2263 22.8338 24.5807 23.9723 25.9599 24.0001Z" fill="#34A853"/>
<path d="M21.0776 16.1409C20.8448 15.4259 20.8448 14.5742 21.0776 13.8592V11.5254L18.2399 9.19165C17.0687 11.5186 17.0687 14.2188 18.2399 16.5458L21.0776 14.1132V16.1409Z" fill="#FBBC04"/>
<path d="M25.9599 10.3298C27.3751 10.2984 28.5999 10.7852 29.5095 11.6409L32.0031 9.20845C30.2319 7.64955 28.0207 6.98595 25.9599 7.00001C23.2255 7.00001 20.7391 8.35824 19.0167 10.4547L21.7775 12.7506C22.5647 11.3828 23.8343 10.3541 25.3343 10.3298H25.9599Z" fill="#EA4335"/>
<path fill-rule="evenodd" clip-rule="evenodd" d="M42.28 8H39.8V23.8H42.28V8Z" fill="#5F6368"/>
<path fill-rule="evenodd" clip-rule="evenodd" d="M52.3364 8H47.4164V10.48H49.8564V23.8H52.3364V10.48H54.7764V8H52.3364Z" fill="#5F6368"/>
<path fill-rule="evenodd" clip-rule="evenodd" d="M60.4219 23.8H62.9019V8H58.2619C57.0619 8 56.0419 8.36 55.2019 9.08C54.3719 9.79 53.9519 10.75 53.9519 11.95C53.9519 13.11 54.3419 14.04 55.1219 14.74C55.9019 15.44 56.8819 15.79 58.0619 15.79H60.4219V23.8ZM58.0519 10.39C58.4919 10.39 58.8519 10.53 59.1319 10.81C59.4119 11.09 59.5519 11.47 59.5519 11.95C59.5519 12.43 59.4119 12.81 59.1319 13.09C58.8519 13.37 58.4919 13.51 58.0519 13.51H56.4319V10.39H58.0519Z" fill="#5F6368"/>
<path fill-rule="evenodd" clip-rule="evenodd" d="M72.4363 21.91L67.1563 12.55H69.9563L73.7163 19.42L77.4763 12.55H80.2763L74.9963 21.91L80.4363 23.8H77.5163L73.7163 20.35L69.9163 23.8H67.0363L72.4363 21.91Z" fill="#5F6368"/>
</svg>
