<svg width="80" height="21" viewBox="0 0 80 21" fill="none" xmlns="http://www.w3.org/2000/svg">
<path d="M8.82914 19.3134L9.58988 15.011H13.8812C16.993 15.011 18.7303 13.0611 19.2472 10.198C19.7027 7.7492 18.7406 5.86071 16.6859 5.86071H11.7513L10.3756 14.8285L10.3449 14.9904H10.3243L10.314 15.0007H6.02264L8.82914 0.686523H17.3852C18.9959 0.686523 20.351 1.05151 21.4491 1.79709C22.5678 2.53238 23.2721 3.5855 23.5106 4.9754C22.6101 4.5452 21.5713 4.2974 20.4004 4.2974C18.0475 4.2974 16.4882 5.56382 15.9304 7.55227C15.5262 9.11145 16.2919 10.1466 17.589 10.1466C18.6687 10.1466 19.4651 9.61018 19.8284 9.27588L20.3289 8.9723L20.7331 11.5328C20.2675 11.963 19.4548 12.3831 18.2839 12.3831C16.1498 12.3831 14.7331 13.9116 13.9205 15.649L12.9891 15.2289L8.82914 19.3134Z" fill="#253B80"/>
<path d="M28.0673 5.86084H22.9515L22.1908 10.1623H26.4821C29.5939 10.1623 31.3312 8.21236 31.8481 5.34927C32.3036 2.89058 31.3415 1 29.2868 1H20.658L17.8516 15.3244H22.143L22.4497 13.3848L22.4805 13.1818H22.5011L22.5114 13.1921H26.8028L24.0169 17.4943H28.6946L32.4284 10.668L33.7256 10.8701L28.0673 5.86084Z" fill="#253B80"/>
<path d="M43.7667 5.86084H38.6509L37.8902 10.1623H42.1815C45.2933 10.1623 47.0306 8.21236 47.5475 5.34927C48.003 2.89058 47.0409 1 44.9862 1H36.3574L33.551 15.3244H37.8424L38.1491 13.3848L38.1798 13.1818H38.2005L38.2108 13.1921H42.5022L39.7163 17.4943H44.394L48.1278 10.668L49.425 10.8701L43.7667 5.86084Z" fill="#253B80"/>
<path d="M57.6533 8.97239L57.2491 11.5329L56.7486 11.2293C56.3853 11.5733 55.5726 12.0035 54.4017 12.0035C52.1252 12.0035 51.0455 10.5184 50.6004 8.91803C50.0426 6.84803 51.0249 5.33081 53.4705 5.33081C54.8872 5.33081 55.9363 5.81934 56.6303 6.36984L57.6533 0.686523H51.4939C50.2937 0.686523 49.2652 1.05151 48.1671 1.79709C47.0484 2.53238 46.3441 3.5855 46.0953 4.9754C46.9958 4.5452 48.0346 4.2974 49.2055 4.2974C51.5584 4.2974 53.1177 5.56382 53.6755 7.55227C54.0797 9.11145 53.314 10.1466 52.0168 10.1466C50.9371 10.1466 50.1407 9.61018 49.7774 9.27588L48.2795 14.8697L48.2488 15.0316H48.2282L48.2179 15.0213H43.9265L46.733 0.686523H42.421L37.9102 19.3134H42.7167L43.4774 15.011H47.7688C50.8806 15.011 52.6179 13.0611 53.1348 10.198C53.6004 7.72861 52.5906 5.81934 50.3668 5.81934L53.7983 19.3134H58.6048L57.6533 8.97239Z" fill="#169BD7"/>
<path d="M63.5937 0.686523L59.8599 15.011H64.1513L64.912 10.7095L64.9427 10.5184H64.9634L64.9737 10.5081L69.3471 10.4978L68.5864 14.9904H72.8778L76.6116 0.686523H71.8051L69.6096 10.5081H65.2362L67.8188 0.686523H63.5937Z" fill="#169BD7"/>
<path d="M78.6946 0.686523L74.9608 15.011H79.2522L80.0129 10.7095L80.0437 10.5184H80.0643L80.0746 10.5081L84.448 10.4978L83.6873 14.9904H87.9787L91.7125 0.686523H86.906L84.7105 10.5081H80.3371L82.9197 0.686523H78.6946Z" fill="#169BD7"/>
</svg>
