<svg width="80" height="24" viewBox="0 0 80 24" fill="none" xmlns="http://www.w3.org/2000/svg">
<path d="M23.6 6.24C22.4 5.04 20.72 4.32 18.8 4.32C14.48 4.32 10.88 7.92 10.88 12.24C10.88 16.56 14.48 20.16 18.8 20.16C20.72 20.16 22.4 19.44 23.6 18.24L21.68 16.32C20.84 17.16 19.88 17.64 18.8 17.64C15.92 17.64 13.52 15.24 13.52 12.24C13.52 9.24 15.92 6.84 18.8 6.84C19.88 6.84 20.84 7.32 21.68 8.16L23.6 6.24Z" fill="#253B80"/>
<path d="M30.4 6.24C29.2 5.04 27.52 4.32 25.6 4.32C21.28 4.32 17.68 7.92 17.68 12.24C17.68 16.56 21.28 20.16 25.6 20.16C27.52 20.16 29.2 19.44 30.4 18.24L28.48 16.32C27.64 17.16 26.68 17.64 25.6 17.64C22.72 17.64 20.32 15.24 20.32 12.24C20.32 9.24 22.72 6.84 25.6 6.84C26.68 6.84 27.64 7.32 28.48 8.16L30.4 6.24Z" fill="#179BD7"/>
<path d="M42.4 6.24H36.8V20.16H39.2V10.56H42.4C45.28 10.56 47.2 8.64 47.2 6.24C47.2 3.84 45.28 1.92 42.4 1.92H36.8V4.32H42.4C44.32 4.32 45.28 5.04 45.28 6.24C45.28 7.44 44.32 8.16 42.4 8.16V6.24Z" fill="#253B80"/>
<path d="M54.4 6.24H48.8V20.16H51.2V10.56H54.4C57.28 10.56 59.2 8.64 59.2 6.24C59.2 3.84 57.28 1.92 54.4 1.92H48.8V4.32H54.4C56.32 4.32 57.28 5.04 57.28 6.24C57.28 7.44 56.32 8.16 54.4 8.16V6.24Z" fill="#179BD7"/>
<path d="M66.4 6.24H60.8V20.16H63.2V10.56H66.4C69.28 10.56 71.2 8.64 71.2 6.24C71.2 3.84 69.28 1.92 66.4 1.92H60.8V4.32H66.4C68.32 4.32 69.28 5.04 69.28 6.24C69.28 7.44 68.32 8.16 66.4 8.16V6.24Z" fill="#253B80"/>
<path d="M78.4 6.24H72.8V20.16H75.2V10.56H78.4C81.28 10.56 83.2 8.64 83.2 6.24C83.2 3.84 81.28 1.92 78.4 1.92H72.8V4.32H78.4C80.32 4.32 81.28 5.04 81.28 6.24C81.28 7.44 80.32 8.16 78.4 8.16V6.24Z" fill="#179BD7"/>
</svg>
