<svg width="98" height="32" viewBox="0 0 98 32" fill="none" xmlns="http://www.w3.org/2000/svg">
<path d="M7.05455 10.1504V8H0V10.1504H2.76364V23.8H5.25818V10.1504H7.05455Z" fill="#5F6368"/>
<path d="M12.9236 10.1504V8H7.93091V23.8H10.4255V14.6151L14.7309 23.8H17.0364L12.9236 14.887V10.1504Z" fill="#5F6368"/>
<path d="M22.84 8H17.8473V23.8H20.3418V16.326H22.84C24.5055 16.326 25.8436 15.9395 26.8545 15.1664C27.8655 14.3932 28.3709 13.3138 28.3709 11.9282C28.3709 10.5426 27.8655 9.46316 26.8545 8.68997C25.8436 7.91678 24.5055 8 22.84 8ZM22.84 14.1956H20.3418V10.1332H22.84C23.6327 10.1332 24.2582 10.3341 24.7164 10.7358C25.1745 11.1375 25.4036 11.666 25.4036 12.3214C25.4036 12.9767 25.1745 13.5053 24.7164 13.907C24.2582 14.3087 23.6327 14.1956 22.84 14.1956Z" fill="#5F6368"/>
<path d="M37.1636 10.1504V8H30.1091V10.1504H32.8727V23.8H35.3673V10.1504H37.1636Z" fill="#5F6368"/>
<path d="M40.2364 8H45.8909L42.9236 15.8202H40.2364V8Z" fill="#5F6368"/>
<path d="M52.0182 8H46.4727V23.8H55.4545V21.6496H48.9673V16.9202H54.4691V14.7698H48.9673V10.1504H55.2V8H52.0182Z" fill="#5F6368"/>
<path d="M66.4909 8H61.1636C60.0109 8 59.0291 8.34789 58.2182 9.04368C57.4073 9.73947 57 10.6121 57 11.6616C57 12.711 57.4073 13.5837 58.2182 14.2795C59.0291 14.9753 60.0109 15.3232 61.1636 15.3232H63.9273V12.7483H61.1636C60.6727 12.7483 60.2909 12.6046 60.0182 12.3172C59.7455 12.0298 59.6091 11.6819 59.6091 11.273C59.6091 10.8641 59.7455 10.5162 60.0182 10.2288C60.2909 9.94132 60.6727 9.79763 61.1636 9.79763H66.4909V8Z" fill="#5F6368"/>
<path d="M63.9273 23.8V17.9909H61.1636C59.1818 17.9909 57.6582 18.5085 56.5927 19.5437C55.5273 20.5788 55 21.942 55 23.6332V23.8H66.4909V21.6496H57.5927C57.7018 21.1441 57.9491 20.7358 58.3345 20.4247C58.72 20.1136 59.2036 19.958 59.7855 19.958C60.48 19.958 61.0836 20.1495 61.5964 20.5323C62.1091 20.9151 62.4691 21.4105 62.6764 22.019H63.9273V23.8Z" fill="#5F6368"/>
<path d="M72.2945 10.1504V8H67.3018V23.8H69.7964V14.6151L74.0182 23.8H76.4255L72.2945 14.887V10.1504Z" fill="#5F6368"/>
<path d="M85.4545 8H80.1273C78.9745 8 77.9927 8.34789 77.1818 9.04368C76.3709 9.73947 75.9636 10.6121 75.9636 11.6616C75.9636 12.711 76.3709 13.5837 77.1818 14.2795C77.9927 14.9753 78.9745 15.3232 80.1273 15.3232H82.8909V12.7483H80.1273C79.6364 12.7483 79.2545 12.6046 78.9818 12.3172C78.7091 12.0298 78.5727 11.6819 78.5727 11.273C78.5727 10.8641 78.7091 10.5162 78.9818 10.2288C79.2545 9.94132 79.6364 9.79763 80.1273 9.79763H85.4545V8Z" fill="#5F6368"/>
<path d="M82.8909 23.8V17.9909H80.1273C78.1455 17.9909 76.6218 18.5085 75.5564 19.5437C74.4909 20.5788 73.9636 21.942 73.9636 23.6332V23.8H85.4545V21.6496H76.5564C76.6655 21.1441 76.9127 20.7358 77.2982 20.4247C77.6836 20.1136 78.1673 19.958 78.7491 19.958C79.4436 19.958 80.0473 20.1495 80.56 20.5323C81.0727 20.9151 81.4327 21.4105 81.64 22.019H82.8909V23.8Z" fill="#5F6368"/>
<path d="M94.4364 8H88.8909V23.8H97.8727V21.6496H91.3855V16.9202H96.8873V14.7698H91.3855V10.1504H97.6182V8H94.4364Z" fill="#5F6368"/>
</svg>
