<svg width="34" height="12" viewBox="0 0 34 12" fill="none" xmlns="http://www.w3.org/2000/svg">
<path d="M3.06434 0.612305L3.06434 4.39499L4.85871 4.39499C5.38883 4.39499 5.82392 4.54217 6.16398 4.83654C6.51354 5.1214 6.68832 5.51062 6.68832 6.0042C6.68832 6.49778 6.51354 6.887 6.16398 7.17186C5.82392 7.45672 5.38883 7.60391 4.85871 7.60391L3.06434 7.60391L3.06434 11.3866H0.8125V0.612305H3.06434Z" fill="#5F6368"/>
<path d="M13.6265 0.612305H15.9357L12.5698 11.3866H10.2605L13.6265 0.612305Z" fill="#5F6368"/>
<path d="M18.8925 0.612305H24.5802L22.9944 5.3474L25.3037 11.3866H22.9282L21.2474 7.02468L19.5666 11.3866H17.1911L18.8925 0.612305Z" fill="#5F6368"/>
<path d="M26.4316 4.72126L27.508 1.95679H33.1543L30.2917 11.3866H27.973L29.3564 7.42447H26.5413L26.4316 4.72126Z" fill="#F47721"/>
<path d="M25.4135 4.72126L29.6247 4.72126L30.0102 5.82903L26.8378 5.82903L25.4135 4.72126Z" fill="#FDB813"/>
</svg>
